<svg version="1.1" xmlns="http://www.w3.org/2000/svg" xmlns:xlink="http://www.w3.org/1999/xlink" x="0px" y="0px" viewBox="0 0 256 256" enable-background="new 0 0 256 256" xml:space="preserve">
<g><g><g><path fill="#000000" d="M79.7,10.2c-0.9,0.2-2.1,1-2.6,1.7C76,13.2,76,13.4,76,26.6V40l-2.7,1.2c-3.6,1.7-7.9,6.2-9.3,9.9c-0.9,2.2-1.1,3.6-1.1,7.5c0,4.5,0.1,5.1,1.5,7.9c0.8,1.7,2.3,4,3.3,5.1c1.1,1.1,1.9,2.3,1.9,2.6c0,1-7.5,28.9-7.8,29.3c-0.4,0.5-3.4-1-7.6-3.8c-1.8-1.2-3.5-2.3-3.8-2.5c-0.3-0.2-1.2,0.6-2.4,2.3c-1.8,2.4-1.8,2.6-1.1,3.5c1,1.1,7.2,5.1,10.5,6.7c2.5,1.2,2.6,1.3,2.3,2.7c-0.7,3.2-0.5,3.2-5,0.9c-2.2-1.1-5.7-3.2-7.8-4.7l-3.7-2.6l-0.8,1.1c-0.5,0.6-2.6,3.6-4.8,6.6c-3.8,5.2-4,5.5-3.1,6.1c3.1,2.5,10.9,7.2,15,9.2c3.1,1.5,4.9,2.6,4.9,3c0,0.4-2.4,9.4-5.2,20.1l-5.2,19.4l-1.6-0.1c-0.9-0.1-2,0.1-2.4,0.5c-0.6,0.4-2,5.3-4.9,16.2c-2.3,8.5-4.2,16.1-4.2,16.7c0,1,0.4,1.2,3.8,2.1c2.1,0.6,6.3,1.7,9.3,2.5c4.3,1.2,5.7,1.4,6.1,1c0.6-0.6,8.9-31.1,8.9-32.7c0-0.9-2.1-2.7-3.1-2.7c-0.5,0-0.6-0.3-0.4-0.9c0.1-0.5,2.5-9.5,5.3-19.9c2.8-10.4,5.1-19.1,5.3-19.2c0.1-0.1,1.2,0,2.4,0.3c3.7,0.9,19.1,1.1,23.8,0.4c3.6-0.6,4.1-0.6,4.2,0c0.1,0.4,3.8,15.2,8.1,32.8c4.3,17.6,8,32.1,8,32.2c0.1,0,2.2-2.5,4.6-5.8l4.4-6l-6.9-28.4c-3.8-15.6-6.9-28.5-6.9-28.6c0-0.1,1-0.6,2.2-1c3.9-1.5,10-4.7,14.3-7.6c2.3-1.6,4.3-3,4.4-3.2c0.1-0.2-1.9-3.3-4.6-6.9l-4.8-6.6l-2.8,2c-2.9,2.2-11.5,6.7-12.6,6.7c-0.4,0-0.9-0.8-1.2-1.9c-0.3-1.1-0.5-2-0.4-2c0,0,1.5-0.7,3.3-1.5c3-1.4,10.8-6.3,10.8-6.8c0-0.1-1-1.5-2.2-3.1c-1.2-1.6-2.2-2.9-2.3-3c0-0.1-1.4,0.8-3,1.9c-4.2,3-8.7,5.1-9,4.4c-0.1-0.3-1.8-6.9-3.9-14.5l-3.7-14l2.3-2.1c1.4-1.4,2.9-3.4,3.9-5.5c3.1-6.2,2.6-13.8-1.2-19.3c-1.9-2.8-5.7-6-8.1-7l-2.1-0.8V27c0-14.1-0.1-15-2.4-16.2C83.5,10,81.5,9.8,79.7,10.2z M85.8,46.8c1,0.3,2.8,1.4,3.9,2.4c9,8,2.9,22.9-9.1,21.8c-13.1-1.2-15.4-19.5-3-24.2C79.4,46.1,83.5,46.1,85.8,46.8z M85.1,92.7c2.5,9.5,3.6,14.4,3.3,14.7c-0.6,0.6-14.1,0.6-14.7,0c-0.5-0.5,6.8-28.9,7.4-28.9C81.2,78.5,83,84.9,85.1,92.7z M81.5,115.2c2.9,0,6.2-0.1,7.3-0.2l2-0.2l0.6,2c0.3,1.1,0.6,2.1,0.5,2.2c0,0.1-2.4,0.4-5.1,0.6c-3.8,0.4-6.3,0.4-10.3,0c-2.9-0.3-5.5-0.6-5.7-0.8c-0.4-0.3-0.1-3.2,0.4-4c0.1-0.2,1.3-0.2,2.6,0C75.1,115.1,78.6,115.2,81.5,115.2z"/><path fill="#000000" d="M193.9,102.8c-17.7,24.1-48.5,66-68.5,93.1C105.5,223,89,245.4,89,245.6c-0.1,0.3,24.2,0.4,68.5,0.4l68.7-0.1l0.1-6.3l0.1-6.4h-2.8c-2.3,0-2.9-0.1-3.3-0.9c-0.4-0.6-0.4-1.2,0-1.8c0.4-0.8,1-0.9,3.2-0.9h2.8v-3.7v-3.7h-3c-1.7,0-3-0.2-3-0.4c0-0.2-0.1-0.7-0.3-1.1c-0.5-1.2,1.1-2.2,3.8-2.2h2.5v-3.5v-3.5h-2.8c-2.3,0-2.8-0.1-3.2-0.9c-0.4-0.6-0.4-1.2,0-1.8c0.4-0.8,1-0.9,3.2-0.9h2.8v-3.7v-3.7h-2.8c-2.3,0-2.8-0.1-3.2-0.9c-0.4-0.6-0.4-1.2,0-1.8c0.4-0.8,1-0.9,3.2-0.9h2.8V193v-3.7h-3c-3.1,0-3.7-0.4-3.2-2.3c0.2-0.9,0.6-1,3.2-1h3v-3.7v-3.7h-2.8c-2.5,0-2.9-0.1-3.2-1.1c-0.7-1.9,0.1-2.6,3.2-2.6h2.8v-3.7v-3.7h-2.8c-2.3,0-2.8-0.1-3.2-0.9c-0.4-0.6-0.4-1.2,0-1.8c0.4-0.8,1-0.9,3.2-0.9h2.8v-3.5V157H224c-2.7,0-4.2-0.9-3.8-2.2c0.1-0.4,0.3-0.9,0.3-1.1s1.3-0.4,3-0.4h3v-3.7v-3.7h-2.8c-2.3,0-2.8-0.1-3.2-0.9c-0.4-0.6-0.4-1.2,0-1.8c0.4-0.8,1-0.9,3.2-0.9h2.8v-3.7v-3.7h-3c-1.7,0-3-0.2-3-0.4s-0.1-0.7-0.3-1.1c-0.5-1.2,1.1-2.2,3.8-2.2h2.5v-3.5v-3.4l-2.9-0.1l-2.9-0.1v-1.6v-1.6l2.9-0.1l2.9-0.1v-3.6v-3.7h-2.8c-2.3,0-2.8-0.1-3.2-0.9c-0.4-0.6-0.4-1.2,0-1.8c0.4-0.8,1-0.9,3.2-0.9h2.8v-3.7v-3.7h-3c-2.5,0-3-0.1-3.3-0.9c-0.6-1.8,0.1-2.4,3.3-2.4h3v-3.7v-3.7h-2.8c-2.3,0-2.8-0.1-3.2-0.9c-0.4-0.6-0.4-1.2,0-1.8c0.4-0.8,1-0.9,3.2-0.9h2.8V73.4c0-7.9-0.1-14.3-0.2-14.3C226.2,59.1,211.6,78.8,193.9,102.8z M200,220.1c-0.1,0.1-14.1,0.1-31.1,0L138,220l31-42.4l30.9-42.3l0.1,42.3C200.1,200.9,200.1,220,200,220.1z"/><path fill="#000000" d="M33.8,210c-0.1,0.1-0.7,2.4-1.5,5.1l-1.3,4.8l1.3,1.1l1.2,1.1l-2.2,11.1c-1.2,6.1-2,11.4-1.8,11.8c0.1,0.4,0.6,0.7,1.2,0.7c1,0,1.1-0.2,5.6-13.5c2.8-8.3,3-8.7,4.2-8.7c0.7,0,1.4-0.3,1.7-0.6c0.6-0.8,3-9.6,2.6-9.9C44.3,212.4,34,209.7,33.8,210z"/></g></g></g>
</svg>
