<svg width="114" height="38" viewBox="0 0 114 38" fill="none" xmlns="http://www.w3.org/2000/svg">
<path d="M17.65 7.1C16.2167 7.1 14.9333 7.38333 13.8 7.95C12.7 8.51667 11.7667 9.33333 11 10.4C10.2333 11.4333 9.65 12.7 9.25 14.2C8.88333 15.7 8.7 17.3833 8.7 19.25C8.7 21.7833 9 23.95 9.6 25.75C10.2333 27.5167 11.2167 28.8667 12.55 29.8C13.8833 30.7333 15.5833 31.2 17.65 31.2C19.1167 31.2 20.5667 31.0333 22 30.7C23.4667 30.3667 25.05 29.9 26.75 29.3V35.65C25.1833 36.2833 23.6333 36.75 22.1 37.05C20.5667 37.35 18.85 37.5 16.95 37.5C13.2833 37.5 10.25 36.75 7.85 35.25C5.48333 33.7167 3.73333 31.5833 2.6 28.85C1.46667 26.0833 0.9 22.8667 0.9 19.2C0.9 16.5 1.26667 14.0333 2 11.8C2.73333 9.53333 3.8 7.58333 5.2 5.95C6.63333 4.31667 8.38333 3.05 10.45 2.15C12.55 1.25 14.95 0.799998 17.65 0.799998C19.4167 0.799998 21.1833 1.03333 22.95 1.5C24.75 1.93333 26.4667 2.53333 28.1 3.3L25.65 9.45C24.3167 8.81666 22.9667 8.26666 21.6 7.8C20.2667 7.33333 18.95 7.1 17.65 7.1ZM48.4359 37L39.8359 9H39.6359C39.6693 9.66667 39.7193 10.6667 39.7859 12C39.8526 13.3333 39.9193 14.7667 39.9859 16.3C40.0526 17.8 40.0859 19.1667 40.0859 20.4V37H33.3359V1.3H43.6359L52.0859 28.6H52.2359L61.1859 1.3H71.4859V37H64.4359V20.1C64.4359 18.9667 64.4526 17.6667 64.4859 16.2C64.5526 14.7333 64.6026 13.35 64.6359 12.05C64.7026 10.7167 64.7526 9.71667 64.7859 9.05H64.5859L55.3859 37H48.4359ZM88.7539 37.5C86.0539 37.5 83.6872 36.9167 81.6539 35.75C79.6539 34.5833 77.8039 32.5833 76.1039 29.75L81.6039 26.25C82.3706 27.4167 83.1372 28.3667 83.9039 29.1C84.7039 29.8333 85.5372 30.3667 86.4039 30.7C87.2706 31.0333 88.1706 31.2 89.1039 31.2C90.1039 31.2 91.0372 30.9667 91.9039 30.5C92.7706 30.0333 93.4539 29.3833 93.9539 28.55C94.4872 27.6833 94.7539 26.7 94.7539 25.6C94.7539 24.4667 94.5372 23.5167 94.1039 22.75C93.6706 21.9833 93.0372 21.4 92.2039 21C91.3706 20.6 90.3872 20.4 89.2539 20.4C88.7539 20.4 88.2039 20.45 87.6039 20.55C87.0039 20.65 86.3872 20.8167 85.7539 21.05C85.1206 21.25 84.4372 21.5 83.7039 21.8L81.9539 17.2L91.2039 7.1L93.1039 8.45L78.4039 8.25V1.8H99.4539L100.804 4.55L89.2539 17.05L87.5039 15C87.7706 14.8667 88.2039 14.75 88.8039 14.65C89.4372 14.5167 90.0206 14.45 90.5539 14.45C92.0872 14.45 93.5206 14.7333 94.8539 15.3C96.1872 15.8667 97.3706 16.65 98.4039 17.65C99.4372 18.65 100.237 19.8167 100.804 21.15C101.404 22.4833 101.704 23.9167 101.704 25.45C101.704 27.75 101.121 29.8167 99.9539 31.65C98.8206 33.45 97.2706 34.8833 95.3039 35.95C93.3706 36.9833 91.1872 37.5 88.7539 37.5Z" fill="#F5F5F5"/>
<path d="M109.016 37.572C107.664 37.572 106.624 37.1907 105.896 36.428C105.168 35.6653 104.804 34.5733 104.804 33.152C104.804 31.8693 105.186 30.8293 105.948 30.032C106.746 29.2 107.768 28.784 109.016 28.784C110.334 28.784 111.356 29.1653 112.084 29.928C112.812 30.6907 113.176 31.7653 113.176 33.152C113.176 34.4693 112.795 35.544 112.032 36.376C111.27 37.1733 110.264 37.572 109.016 37.572Z" fill="#5468E7"/>
</svg>
