<?xml version="1.0" encoding="utf-8"?>
<!-- Generator: Adobe Illustrator 15.1.0, SVG Export Plug-In . SVG Version: 6.00 Build 0)  -->
<!DOCTYPE svg PUBLIC "-//W3C//DTD SVG 1.1//EN" "http://www.w3.org/Graphics/SVG/1.1/DTD/svg11.dtd">
<svg version="1.1" id="Layer_1" xmlns="http://www.w3.org/2000/svg" xmlns:xlink="http://www.w3.org/1999/xlink" x="0px" y="0px"
	 width="250" height="250" viewBox="0 0 759.332 642.4" enable-background="new 0 0 759.332 642.4" xml:space="preserve">
<g>
	<g>
		<path fill="#4389C8" d="M359.811,291.971C444.98,201.271,522.521,103.45,591.65,0c-20.779,163.611-59.24,325.012-115.219,480.161
			c0.52,0,1.539,0.01,2.049,0.01c-10.139,54.07-20.32,108.132-30.459,162.2c-9.141,0-18.281,0.01-27.42-0.01
			c9.48-44.55,19-89.09,28.49-133.64c-19.07,44.528-38.08,89.09-57.102,133.648c-9.51,0-19.019,0.021-28.52-0.02
			c-1.6-44.841-3.62-89.682-5.08-134.53c-8.05,44.79-15.35,89.72-23.15,134.55c-9.03,0.01-18.06,0-27.09,0.01
			c2.5-13.52,5.06-27.028,7.57-40.538C210.48,601.83,105.24,601.861,0,601.82C130.511,511.731,251.301,407.621,359.811,291.971z
			 M30.911,591.911c95.56-0.01,191.12,0,286.68,0c6.95-37.229,13.98-74.43,20.87-111.66c14.26-0.18,28.53-0.02,42.791-0.08
			c1.559,37.75,2.959,75.512,4.479,113.271c16.49-37.75,32.98-75.5,49.471-113.25c10.25-0.03,20.5-0.01,30.75-0.01
			c51.08-141.67,87.65-288.521,109.32-437.54C427.21,255.221,242.421,442.25,30.911,591.911z"/>
	</g>
	<path fill="#4389C8" d="M508.98,480.17c9.313,0.012,18.621-0.01,27.93,0.021c-6.35,33.41-12.697,66.83-19,100.26
		c26.092-33.438,52.371-66.729,78.41-100.188c9.4-0.2,18.813-0.021,28.223-0.092c-10.303,54.08-20.49,108.182-30.932,162.23
		c-9.408-0.08-18.83,0.02-28.238-0.05c6.607-33.801,13.107-67.63,19.738-101.432c-26.359,33.842-52.811,67.61-79.18,101.44
		c-9.34,0.02-18.68,0.03-28.01,0C488.271,588.302,498.621,534.231,508.98,480.17z"/>
	<path fill="#4389C8" d="M644.65,480.17c38.23,0.012,76.451-0.02,114.682,0.021c-1.709,9.05-3.391,18.12-5.092,27.18
		c-14.02,0.021-28.039-0.01-42.059,0.01c-8.41,44.99-16.861,89.971-25.271,134.961c-10.02,0.079-20.049,0-30.078,0.05
		c8.408-45.012,16.908-90.012,25.369-135.012c-14.211-0.02-28.42,0-42.619-0.01C641.22,498.302,642.941,489.241,644.65,480.17z"/>
</g>
</svg>
