<svg version="1.1" xmlns="http://www.w3.org/2000/svg" xmlns:xlink="http://www.w3.org/1999/xlink" x="0px" y="0px" viewBox="0 0 256 256" enable-background="new 0 0 256 256" xml:space="preserve">
<g><g><path fill="#000000" d="M43.7,119.6h151.7c27.9,0,50.6-22.7,50.6-50.6c0-27.9-22.6-50.6-50.6-50.6v16.9c23.8,4.5,33.7,15.1,33.7,33.7s-19.5,33.7-43.6,33.7H43.7c-4.6,0-8.4,3.8-8.4,8.4C35.3,115.8,39.1,119.6,43.7,119.6z M85.9,85.9H187c4.7,0,8.4-3.7,8.4-8.4c0-4.6-3.8-8.4-8.4-8.4H85.9c-4.6,0-8.4,3.8-8.4,8.4C77.5,82.1,81.2,85.9,85.9,85.9z M195.4,136.4h-177c-4.6,0-8.4,3.8-8.4,8.4c0,4.7,3.8,8.4,8.4,8.4h167.1c24.1,0,43.6,15.1,43.6,33.7c0,18.6-14.4,33.7-50.6,33.7c0,0,0,7.3,0,16.9h16.9c27.9,0,50.6-22.7,50.6-50.6C246,159.1,223.4,136.4,195.4,136.4z M128,170.1L128,170.1H60.6c-4.6,0-8.4,3.8-8.4,8.4c0,4.7,3.8,8.4,8.4,8.4H128c9.3,0,16.8,7.6,16.8,16.9c0,9.3-7.6,16.9-16.8,16.9v16.9c18.6,0,33.7-15.1,33.7-33.7C161.7,185.2,146.6,170.1,128,170.1z"/></g></g>
</svg>
