<svg xmlns="http://www.w3.org/2000/svg" xmlns:xlink="http://www.w3.org/1999/xlink"><symbol id="icon-agm" viewBox="0 0 256 256"><g enable-background="new 0 0 256 256">
<g><g><path fill="#000000" d="M43.7,119.6h151.7c27.9,0,50.6-22.7,50.6-50.6c0-27.9-22.6-50.6-50.6-50.6v16.9c23.8,4.5,33.7,15.1,33.7,33.7s-19.5,33.7-43.6,33.7H43.7c-4.6,0-8.4,3.8-8.4,8.4C35.3,115.8,39.1,119.6,43.7,119.6z M85.9,85.9H187c4.7,0,8.4-3.7,8.4-8.4c0-4.6-3.8-8.4-8.4-8.4H85.9c-4.6,0-8.4,3.8-8.4,8.4C77.5,82.1,81.2,85.9,85.9,85.9z M195.4,136.4h-177c-4.6,0-8.4,3.8-8.4,8.4c0,4.7,3.8,8.4,8.4,8.4h167.1c24.1,0,43.6,15.1,43.6,33.7c0,18.6-14.4,33.7-50.6,33.7c0,0,0,7.3,0,16.9h16.9c27.9,0,50.6-22.7,50.6-50.6C246,159.1,223.4,136.4,195.4,136.4z M128,170.1L128,170.1H60.6c-4.6,0-8.4,3.8-8.4,8.4c0,4.7,3.8,8.4,8.4,8.4H128c9.3,0,16.8,7.6,16.8,16.9c0,9.3-7.6,16.9-16.8,16.9v16.9c18.6,0,33.7-15.1,33.7-33.7C161.7,185.2,146.6,170.1,128,170.1z"/></g></g>
</g></symbol><symbol id="icon-close" viewBox="0 0 20 20"><g fill="none"><path d="M.293 18.291a1 1 0 101.414 1.414L10 11.413l8.292 8.292a1 1 0 101.414-1.414l-8.292-8.292 8.292-8.292A1 1 0 1018.291.293L9.999 8.585 1.707.293A1 1 0 10.293 1.707L8.585 10 .293 18.291z"/></g></symbol><symbol id="icon-proectirovanie" viewBox="0 0 256 256"><g enable-background="new 0 0 256 256">
<g><g><g><path fill="#000000" d="M79.7,10.2c-0.9,0.2-2.1,1-2.6,1.7C76,13.2,76,13.4,76,26.6V40l-2.7,1.2c-3.6,1.7-7.9,6.2-9.3,9.9c-0.9,2.2-1.1,3.6-1.1,7.5c0,4.5,0.1,5.1,1.5,7.9c0.8,1.7,2.3,4,3.3,5.1c1.1,1.1,1.9,2.3,1.9,2.6c0,1-7.5,28.9-7.8,29.3c-0.4,0.5-3.4-1-7.6-3.8c-1.8-1.2-3.5-2.3-3.8-2.5c-0.3-0.2-1.2,0.6-2.4,2.3c-1.8,2.4-1.8,2.6-1.1,3.5c1,1.1,7.2,5.1,10.5,6.7c2.5,1.2,2.6,1.3,2.3,2.7c-0.7,3.2-0.5,3.2-5,0.9c-2.2-1.1-5.7-3.2-7.8-4.7l-3.7-2.6l-0.8,1.1c-0.5,0.6-2.6,3.6-4.8,6.6c-3.8,5.2-4,5.5-3.1,6.1c3.1,2.5,10.9,7.2,15,9.2c3.1,1.5,4.9,2.6,4.9,3c0,0.4-2.4,9.4-5.2,20.1l-5.2,19.4l-1.6-0.1c-0.9-0.1-2,0.1-2.4,0.5c-0.6,0.4-2,5.3-4.9,16.2c-2.3,8.5-4.2,16.1-4.2,16.7c0,1,0.4,1.2,3.8,2.1c2.1,0.6,6.3,1.7,9.3,2.5c4.3,1.2,5.7,1.4,6.1,1c0.6-0.6,8.9-31.1,8.9-32.7c0-0.9-2.1-2.7-3.1-2.7c-0.5,0-0.6-0.3-0.4-0.9c0.1-0.5,2.5-9.5,5.3-19.9c2.8-10.4,5.1-19.1,5.3-19.2c0.1-0.1,1.2,0,2.4,0.3c3.7,0.9,19.1,1.1,23.8,0.4c3.6-0.6,4.1-0.6,4.2,0c0.1,0.4,3.8,15.2,8.1,32.8c4.3,17.6,8,32.1,8,32.2c0.1,0,2.2-2.5,4.6-5.8l4.4-6l-6.9-28.4c-3.8-15.6-6.9-28.5-6.9-28.6c0-0.1,1-0.6,2.2-1c3.9-1.5,10-4.7,14.3-7.6c2.3-1.6,4.3-3,4.4-3.2c0.1-0.2-1.9-3.3-4.6-6.9l-4.8-6.6l-2.8,2c-2.9,2.2-11.5,6.7-12.6,6.7c-0.4,0-0.9-0.8-1.2-1.9c-0.3-1.1-0.5-2-0.4-2c0,0,1.5-0.7,3.3-1.5c3-1.4,10.8-6.3,10.8-6.8c0-0.1-1-1.5-2.2-3.1c-1.2-1.6-2.2-2.9-2.3-3c0-0.1-1.4,0.8-3,1.9c-4.2,3-8.7,5.1-9,4.4c-0.1-0.3-1.8-6.9-3.9-14.5l-3.7-14l2.3-2.1c1.4-1.4,2.9-3.4,3.9-5.5c3.1-6.2,2.6-13.8-1.2-19.3c-1.9-2.8-5.7-6-8.1-7l-2.1-0.8V27c0-14.1-0.1-15-2.4-16.2C83.5,10,81.5,9.8,79.7,10.2z M85.8,46.8c1,0.3,2.8,1.4,3.9,2.4c9,8,2.9,22.9-9.1,21.8c-13.1-1.2-15.4-19.5-3-24.2C79.4,46.1,83.5,46.1,85.8,46.8z M85.1,92.7c2.5,9.5,3.6,14.4,3.3,14.7c-0.6,0.6-14.1,0.6-14.7,0c-0.5-0.5,6.8-28.9,7.4-28.9C81.2,78.5,83,84.9,85.1,92.7z M81.5,115.2c2.9,0,6.2-0.1,7.3-0.2l2-0.2l0.6,2c0.3,1.1,0.6,2.1,0.5,2.2c0,0.1-2.4,0.4-5.1,0.6c-3.8,0.4-6.3,0.4-10.3,0c-2.9-0.3-5.5-0.6-5.7-0.8c-0.4-0.3-0.1-3.2,0.4-4c0.1-0.2,1.3-0.2,2.6,0C75.1,115.1,78.6,115.2,81.5,115.2z"/><path fill="#000000" d="M193.9,102.8c-17.7,24.1-48.5,66-68.5,93.1C105.5,223,89,245.4,89,245.6c-0.1,0.3,24.2,0.4,68.5,0.4l68.7-0.1l0.1-6.3l0.1-6.4h-2.8c-2.3,0-2.9-0.1-3.3-0.9c-0.4-0.6-0.4-1.2,0-1.8c0.4-0.8,1-0.9,3.2-0.9h2.8v-3.7v-3.7h-3c-1.7,0-3-0.2-3-0.4c0-0.2-0.1-0.7-0.3-1.1c-0.5-1.2,1.1-2.2,3.8-2.2h2.5v-3.5v-3.5h-2.8c-2.3,0-2.8-0.1-3.2-0.9c-0.4-0.6-0.4-1.2,0-1.8c0.4-0.8,1-0.9,3.2-0.9h2.8v-3.7v-3.7h-2.8c-2.3,0-2.8-0.1-3.2-0.9c-0.4-0.6-0.4-1.2,0-1.8c0.4-0.8,1-0.9,3.2-0.9h2.8V193v-3.7h-3c-3.1,0-3.7-0.4-3.2-2.3c0.2-0.9,0.6-1,3.2-1h3v-3.7v-3.7h-2.8c-2.5,0-2.9-0.1-3.2-1.1c-0.7-1.9,0.1-2.6,3.2-2.6h2.8v-3.7v-3.7h-2.8c-2.3,0-2.8-0.1-3.2-0.9c-0.4-0.6-0.4-1.2,0-1.8c0.4-0.8,1-0.9,3.2-0.9h2.8v-3.5V157H224c-2.7,0-4.2-0.9-3.8-2.2c0.1-0.4,0.3-0.9,0.3-1.1s1.3-0.4,3-0.4h3v-3.7v-3.7h-2.8c-2.3,0-2.8-0.1-3.2-0.9c-0.4-0.6-0.4-1.2,0-1.8c0.4-0.8,1-0.9,3.2-0.9h2.8v-3.7v-3.7h-3c-1.7,0-3-0.2-3-0.4s-0.1-0.7-0.3-1.1c-0.5-1.2,1.1-2.2,3.8-2.2h2.5v-3.5v-3.4l-2.9-0.1l-2.9-0.1v-1.6v-1.6l2.9-0.1l2.9-0.1v-3.6v-3.7h-2.8c-2.3,0-2.8-0.1-3.2-0.9c-0.4-0.6-0.4-1.2,0-1.8c0.4-0.8,1-0.9,3.2-0.9h2.8v-3.7v-3.7h-3c-2.5,0-3-0.1-3.3-0.9c-0.6-1.8,0.1-2.4,3.3-2.4h3v-3.7v-3.7h-2.8c-2.3,0-2.8-0.1-3.2-0.9c-0.4-0.6-0.4-1.2,0-1.8c0.4-0.8,1-0.9,3.2-0.9h2.8V73.4c0-7.9-0.1-14.3-0.2-14.3C226.2,59.1,211.6,78.8,193.9,102.8z M200,220.1c-0.1,0.1-14.1,0.1-31.1,0L138,220l31-42.4l30.9-42.3l0.1,42.3C200.1,200.9,200.1,220,200,220.1z"/><path fill="#000000" d="M33.8,210c-0.1,0.1-0.7,2.4-1.5,5.1l-1.3,4.8l1.3,1.1l1.2,1.1l-2.2,11.1c-1.2,6.1-2,11.4-1.8,11.8c0.1,0.4,0.6,0.7,1.2,0.7c1,0,1.1-0.2,5.6-13.5c2.8-8.3,3-8.7,4.2-8.7c0.7,0,1.4-0.3,1.7-0.6c0.6-0.8,3-9.6,2.6-9.9C44.3,212.4,34,209.7,33.8,210z"/></g></g></g>
</g></symbol><symbol id="icon-upravlenie" viewBox="0 0 297 297"><g fill="#000000" enable-background="new 0 0 297 297">
  <g>
    <path d="M225.656,77.674c21.414,0,38.837-17.422,38.837-38.837S247.07,0,225.656,0S186.82,17.422,186.82,38.837   S204.241,77.674,225.656,77.674z M225.656,16.819c12.14,0,22.018,9.878,22.018,22.018s-9.878,22.018-22.018,22.018   s-22.017-9.878-22.017-22.018S213.515,16.819,225.656,16.819z"/>
    <path d="m270.577,194.311c-13.621,31.839-44.341,54.195-80.55,56.439l14.699-14.7c3.284-3.285 3.284-8.609 0-11.893-3.285-3.283-8.608-3.283-11.893,0l-29.243,29.244c-3.284,3.285-3.284,8.609 0,11.893l29.243,29.243c1.642,1.641 3.794,2.463 5.947,2.463 2.153,0 4.304-0.821 5.947-2.463 3.284-3.284 3.284-8.609 0-11.893l-15.027-15.026c53.241-2.636 101.018-42.65 104.726-94.915 0.819-11.542 0.215-46.283 0.215-46.283 0-16.58-10.288-31.241-26.017-36.483-0.064-0.021-10.928-3.355-10.928-3.355-4.279-1.316-8.835,0.956-10.368,5.159l-14.031,38.496c0,0-3.547-21.974-3.841-22.459 0.017-0.029 0.039-0.054 0.056-0.083l7.453-12.909c0.795-1.378 0.795-3.074 0-4.452-0.795-1.378-2.266-2.226-3.856-2.226h-14.906c-1.59,0-3.061,0.848-3.856,2.226s-0.795,3.074 0,4.452l7.453,12.909c0.017,0.029 0.038,0.055 0.056,0.083-0.294,0.485-3.841,22.459-3.841,22.459l-14.03-38.496c-1.532-4.204-6.091-6.477-10.368-5.159 0,0-10.864,3.334-10.928,3.355-15.729,5.242-26.296,19.903-26.296,36.483v59.482c0,4.644 3.765,8.409 8.409,8.409h105.775zm-97.366-16.818v-51.073c0-9.298 5.906-17.524 14.707-20.499l2.998-.92 26.421,72.491h-44.126zm104.511-9.146c0,5.272-6.892,9.146-12.459,9.146h-31.289l26.422-72.491 2.998,.92c8.802,2.975 14.328,11.2 14.328,20.499 0-1.42109e-14 0,30.74 0,41.926z"/>
    <path d="m71.7,219.894c14.654,0 26.576-11.922 26.576-26.576 0-14.653-11.922-26.576-26.576-26.576-14.653,0-26.576,11.922-26.576,26.576 0.001,14.653 11.923,26.576 26.576,26.576zm0-36.333c5.38,0 9.758,4.377 9.758,9.757s-4.378,9.757-9.758,9.757c-5.38,0-9.757-4.377-9.757-9.757s4.377-9.757 9.757-9.757z"/>
    <path d="m115.635,19.452c-3.285-3.283-8.608-3.283-11.893,0-3.284,3.285-3.284,8.609 0,11.893l15.023,15.022c-58.18,2.807-104.684,49.598-105.203,112.411l-10.29,17.823c-1.115,1.931-1.417,4.227-0.84,6.381 0.577,2.154 1.986,3.991 3.918,5.106l9.058,5.23-9.058,5.23c-1.931,1.115-3.341,2.952-3.918,5.106-0.578,2.154-0.275,4.45 0.84,6.381l19.737,34.185c2.322,4.023 7.464,5.398 11.487,3.078l9.058-5.23v10.459c0,4.644 3.765,8.409 8.409,8.409h39.473c4.644,0 8.409-3.765 8.409-8.409v-10.459l9.058,5.23c1.931,1.115 4.227,1.417 6.381,0.84 2.154-0.577 3.991-1.986 5.106-3.918l19.736-34.185c2.322-4.022 0.944-9.165-3.078-11.487l-9.059-5.23 9.059-5.23c4.022-2.323 5.4-7.465 3.078-11.487l-19.736-34.185c-1.115-1.931-2.952-3.341-5.106-3.918-2.154-0.58-4.45-0.275-6.381,0.84l-9.058,5.23v-10.46c0-4.644-3.765-8.409-8.409-8.409h-39.472c-4.644,0-8.409,3.765-8.409,8.409v10.46l-9.058-5.23c-0.732-0.422-1.501-0.719-2.284-0.902 8.265-41.08 43.409-72.543 86.229-75.196l-14.7,14.699c-3.284,3.284-3.284,8.609 0,11.893 1.642,1.641 3.794,2.463 5.947,2.463s4.304-0.821 5.947-2.463l29.244-29.244c1.577-1.578 2.463-3.717 2.463-5.947 0-2.231-0.886-4.369-2.463-5.947l-29.245-29.242zm-67.876,146.964c2.603,1.501 5.806,1.501 8.409,0 2.602-1.502 4.205-4.278 4.205-7.283v-16.617h22.655v16.617c0,3.005 1.603,5.78 4.205,7.283 2.603,1.501 5.808,1.501 8.409,0l14.39-8.308 11.327,19.619-14.39,8.308c-2.602,1.502-4.205,4.278-4.205,7.283s1.603,5.78 4.205,7.283l14.39,8.308-11.327,19.619-14.39-8.308c-2.603-1.501-5.808-1.501-8.409,0-2.602,1.502-4.205,4.278-4.205,7.283v16.616h-22.655v-16.616c0-3.005-1.603-5.78-4.205-7.283-2.603-1.501-5.806-1.501-8.409,0l-14.39,8.308-11.328-19.619 14.39-8.308c2.602-1.502 4.205-4.278 4.205-7.283s-1.603-5.78-4.205-7.283l-14.39-8.308 11.328-19.619 14.39,8.308z"/>
  </g>
</g></symbol></svg>